<?xml version="1.0" encoding="utf-8"?>
<!-- Generator: Adobe Illustrator 18.0.0, SVG Export Plug-In . SVG Version: 6.00 Build 0)  -->
<!DOCTYPE svg PUBLIC "-//W3C//DTD SVG 1.1//EN" "http://www.w3.org/Graphics/SVG/1.1/DTD/svg11.dtd">
<svg version="1.1" id="Camada_1" xmlns="http://www.w3.org/2000/svg" xmlns:xlink="http://www.w3.org/1999/xlink" x="0px" y="0px"
	 viewBox="621.8 452.2 4425.6 1930.2" enable-background="new 621.8 452.2 4425.6 1930.2" xml:space="preserve">
<g id="Logo_AIS_lateral">
	<g>
		<path d="M2975.2,1724.6V2086L2834,2382.4L2692.2,2086l-0.1-241.7c3.8-1,35.4-10.6,41.1-12.3c20.6-5.5,19-5.7,36-10.5
			c38.1-10.8,26.5-6.9,57.2-15.6c23-6.7,45.1-17.3,69.1-22.1c28.8-5.8,49.9-23,66.2-45.1c4.8-7.5,9-15.4,13.2-23.5L2975.2,1724.6z"
			/>
		<path d="M2666.7,1659.2"/>
		<path d="M2975.2,722.6v278.9c-13.4,14.4-26.8,29.1-41.2,42.6c-5.8,4.8-11.5,8.6-17.3,11.5c-13.4,6.7-31.7,5.8-39.3,23
			c-1,1.9-5.8,3.8-9.6,3.8c-5.8,1-12.5-0.9-18.2,0c-18.2,2.9-37.4,4.8-54.7,11.5c-17.3,6.7-31.6,19.2-47,29.7
			c-17.3,13.4-38.4,26.9-55.7,40.3V723.6L2834,452.2L2975.2,722.6z"/>
		<path d="M2692.2,1164l-0.1,64.3c-9.6,3.8-19.1,7.6-28.7,11.5c-14.4,5.8-18.2,21.1-24.9,33.6c-6.7,13.4-12.5,27.8-20.1,41.3
			c-9.6,17.3-21.1,0-14.4-12.5c2.9-4.8,31.7-48.9-29.7-29.7c-10.6,1.9-37.4,14.4-41.3,14.4c-4.8,0-6.7-7.7-1.9-10.6
			c11.5-6.7,25-9.6,37.4-19.2c1.9-1,1-4.8-2.9-5.8c-17.3-2.9-20.2,1-48,0c-3.8-0.9-3.8-6.7,0-7.7c13.4-5.8,44.1-3.8,44.1-13.4
			c1-4.8-32.6-12.5-32.6-12.5c-2.9-2.9-1.9-8.6,3.8-8.6c0,0,37.4,12.5,43.2,3.8c4.8-6.7-26.9-29.7-22.1-33.6
			c4.8-3.8,9.6,1.9,13.4,5.8c16.3,14.4,36.5,19.2,58.5,18.2c19.2-1,32.6-10.6,47-23C2678.8,1174.6,2685.5,1168.8,2692.2,1164z"/>
		<path d="M2944.5,1298.3c-1.9,5.8-3.8,10.6-4.8,16.3c-3.8,21.1-4.8,42.2-9.6,62.3c-2.9,12.5-13.4,24-14.4,36.5
			c-1,27.8,1.9,54.7,2.9,82.5c0,5.8-1,12.5-2.9,18.2c-10.6,24.9-21.1,49.9-32.6,74.8c-0.9,2.9-4.8,6.7-7.7,6.7
			c-8.6,1-17.3,1-24.9-0.9c-42.2-10.6-84.4,0-126.6-1.9c-10.5,0-22.2-1.2-31.8-3.1v-361.4c12.5-4.8,28.9-9.6,42.3-11.6
			c41.2-5.8,80.6-18.2,117-40.3c7.7-4.8,14.4-6.7,23-4.8c19.2,4.8,37.4,4.8,51.8-12.5c0.9-1,2.9-1,6.7-1.9c0.9,8.6,1.9,15.4,0.9,25
			c-0.9,16.3,0,32.6,2.9,48.9c1,10.6,1,20.1,1.9,30.7c1,4.8,1,11.5,3.8,14.4C2950.3,1283.9,2948.4,1290.6,2944.5,1298.3z"/>
		<path d="M3168,982.2c-6.7,5.8-8.6,18.2-10.5,27.8c-1,6.7,1,12.5,1,19.2c1,16.3-1.9,20.2-18.2,21.1h-22.1v6.7
			c4.8,19.2-1,36.5-7.7,53.7c-5.8,13.4-7.7,26.9-2.9,42.2c3.8,12.5,0.9,28.8-3.8,41.3c-6.7,18.2-12.5,34.5-10.5,54.7
			c2.9,28.8,1.9,57.6,5.8,86.4c0.4,2.5,1,5,1.8,7.5c-0.2,4.3-0.3,8.5,0.8,12.3c0.1,3.6,0.1,7.2-0.2,10.7c-0.7,9.4-1.3,18.5-0.7,27.6
			c-0.9,2.8-1.7,6.4-1.7,9.9c1,35.5-8.6,69.1-17.3,102.7l-62.3,133.4c-6.7,11.5-14.7,14-20.4,25.5c-1,2.9-3.8,6.7-5.8,9.6
			c-3.8,6.7-7.7,13.4-11.5,20.1c-1,1.9-3.6,17.9-6.7,20.7l0.3-713.8c12-13.4,18.2-4.9,18.2-20.3c-1-20.1-1.9-40.3-1.9-60.4
			c0-15.4,8.6-26.9,19.2-35.5c13.4-11.5,28.8-23,44.1-31.7c9.6-4.8,23-5.8,34.5-6.7c20.1-1.9,37.4,10.6,55.7,16.3
			c3.8,1.9,6.7,11.5,8.6,17.3c2.9,9.6,4.8,20.1,5.8,30.7c0.9,10.6,0.9,21.1,2.9,30.7c1.9,6.7,4.8,13.4,7.7,19.2
			C3173.8,968.8,3178.6,973.6,3168,982.2z"/>
		<path d="M2675.5,1735.8c5.4-2.7,11-5.1,16.6-7.1v115.6c-15.4,4.8-30.7,8.1-45.1,13.9c-2.9,1-6.7,4.8-8.6,8.6
			c-3.8,7.7-4.8,18.2-10.6,25c-11.5,14.4-16.3,30.7-16.3,48.9c0,10.6-1,21.1-1.9,30.7c0,2.9-3.8,7.7-5.8,7.7c-1.9,1-6.7-1.9-7.7-4.8
			c-11.5-22.1-19.2-44.1-21.1-69.1c-2.9-31.7-6.7-62.4-10.6-93.1c-0.7-6.2-1.2-14.9-0.6-23.3c0.5-1,0.8-2.1,1-3.3
			c2.1-4.6,3.5-10.5,7.9-11.9c4.1-1.2,82.7-25.4,85.8-27.4c3.6-1.7,7.2-3.7,10.6-5.8C2670.6,1739.7,2674.7,1736.9,2675.5,1735.8z"/>
		<path d="M2692.1,1647.8c5,0.9,26.5,4.5,34.6,5.5c9.2,1.1,10.9,2.2,26.3,4.1c26.9,2.9,48.9,8.6,75.8,9.5
			c9.6,0.9,20.1-1.9,27.8,10.5c-9.6,2.9-17.3,5.8-25,8.6c-23,7.7-46,16.3-70,24c-9.6,3.8-19.2,6.7-28.8,8.6
			c-13.4,2.9-28.2,5.2-40.7,10V1647.8l-70.5-1.1c-9.6-1-20.2-1.9-29.7-1.9c-1.9,0-5.8,0-7.7,0.9c-20.2,13.4-54.7,38.5-70.1,57.7
			c-3.8,5.8-6.7,13.4-11.5,18.2c-4.8,4.8-12.5,7.7-20.1,9.6c-1.9,0-7.7-8.6-8.6-14.4c-5.8-31.7-11.5-64.3,9.6-92.1
			c14.4-20.1,31.7-38.4,48.9-55.6c11.5-11.5,20.1-11.5,35.5,0c6.5,4.5,75.7,15.3,124.3,20.7V1647.8z"/>
		<path d="M2685.8,1586.6"/>
	</g>
	<g id="XMLID_4_">
		<g id="XMLID_11_">
			<g>
				<path id="XMLID_12_" d="M2070.5,1704.1v-402.9L1681,1704.1H2070.5z M2071.5,1941.1h-615l-421.2,441.3H621.8L2372.7,452.2v1930.2
					h-301.2L2071.5,1941.1L2071.5,1941.1z"/>
			</g>
		</g>
		<g id="XMLID_6_">
			<g>
				<path id="XMLID_7_" d="M3895.2,1118.9h-305.1v273.4h548.8l908.5,990.1H3295.6v-446.1h294.5v177.5h789.6l-402-417.3h-683.1
					c0-408.7,0-835.5,0-1244.2L3895.2,1118.9z"/>
			</g>
		</g>
	</g>
</g>
</svg>
